<?xml version="1.0" encoding="UTF-8"?>
<svg version="1.1" xmlns="http://www.w3.org/2000/svg" width="500" height="500">
<path d="M0 0 C1.41912884 -0.00261663 2.83825485 -0.00787045 4.25736541 -0.015535 C8.15717958 -0.02895988 12.05600623 -0.00494167 15.95569456 0.02513337 C20.16082633 0.05102515 24.36590165 0.04227727 28.5710907 0.03771973 C35.85685248 0.03457238 43.14229206 0.05340983 50.42797279 0.08714676 C60.96180908 0.13589281 71.49548945 0.15153375 82.0294263 0.15907471 C99.11961534 0.17220906 116.20963262 0.21214568 133.29972839 0.26889038 C149.90193319 0.32395783 166.50409135 0.36643166 183.10636902 0.39193726 C184.12959488 0.3935136 185.15282075 0.39508994 186.20705346 0.39671405 C191.34023643 0.40454423 196.47341974 0.41212649 201.60660326 0.41958547 C244.19689481 0.48179384 286.78699903 0.58747982 329.37712097 0.7215271 C330.37712097 3.7215271 330.37712097 3.7215271 329.33024597 5.8230896 C328.76821472 6.65582397 328.20618347 7.48855835 327.62712097 8.3465271 C326.97356628 9.33265991 326.3200116 10.31879272 325.64665222 11.33480835 C325.28136414 11.87830933 324.91607605 12.4218103 324.53971863 12.98178101 C322.42794225 16.14190667 320.37628596 19.34108378 318.31462097 22.5340271 C317.62058167 23.60511719 317.62058167 23.60511719 316.91252136 24.69784546 C310.67263482 34.33313349 304.53102171 44.03120685 298.37712097 53.7215271 C291.47707023 64.58678221 284.57322627 75.44802067 277.56437683 86.24349976 C273.14849812 93.05417141 268.79619118 99.90492362 264.44328308 106.75595093 C260.49460458 112.96975436 256.5280107 119.17137977 252.53727722 125.35824585 C250.08322289 129.17911525 247.64519401 133.00998227 245.2084198 136.84188843 C243.49118633 139.54216422 241.77235689 142.24141533 240.05290222 144.9402771 C234.41414724 153.79382778 228.78465513 162.65277239 223.18962097 171.5340271 C219.06000611 178.08596979 214.88046965 184.60301611 210.6615448 191.0977478 C206.25174839 197.89431803 201.90933529 204.73316148 197.56681824 211.57284546 C194.05422917 217.10057919 190.5129156 222.60789307 186.93962097 228.0965271 C180.55177761 237.92159889 174.38348899 247.88395873 168.18327332 257.82797241 C163.61465622 265.14714649 159.01099119 272.44351259 154.37712097 279.7215271 C153.52078064 281.07045044 153.52078064 281.07045044 152.6471405 282.44662476 C150.87653566 285.23024068 149.09688091 288.00786236 147.31462097 290.7840271 C146.76596375 291.64802124 146.21730652 292.51201538 145.65202332 293.40219116 C145.13720398 294.19979858 144.62238464 294.99740601 144.09196472 295.81918335 C143.63942322 296.52567017 143.18688171 297.23215698 142.72062683 297.96005249 C141.37712097 299.7215271 141.37712097 299.7215271 138.37712097 301.7215271 C135.77904782 301.90542452 133.2900045 301.97390821 130.6927948 301.94857788 C129.91207108 301.94886993 129.13134735 301.94916199 128.32696533 301.94946289 C125.74591465 301.94806934 123.16515249 301.93250703 120.58415222 301.9168396 C118.79482175 301.91310956 117.00548925 301.91026254 115.21615601 301.90826416 C110.50610212 301.900627 105.79617154 301.88097779 101.08616638 301.8588562 C96.28017342 301.83839957 91.47416054 301.82926283 86.6681366 301.81918335 C77.23774388 301.79773199 67.80744268 301.76359502 58.37712097 301.7215271 C57.23152161 298.01599121 57.23152161 298.01599121 58.54191589 295.36581421 C59.14108826 294.5022229 59.74026062 293.63863159 60.35758972 292.74887085 C61.02081238 291.77699829 61.68403503 290.80512573 62.36735535 289.80380249 C63.45500183 288.24713867 63.45500183 288.24713867 64.56462097 286.6590271 C66.05994252 284.47017332 67.55341596 282.28005592 69.04508972 280.0887146 C69.78678406 279.00429077 70.52847839 277.91986694 71.29264832 276.80258179 C74.07844758 272.6848977 76.74525072 268.50120019 79.37712097 264.2840271 C80.33389388 262.7565215 81.29093179 261.22918187 82.24821472 259.70199585 C82.74305359 258.91228394 83.23789246 258.12257202 83.74772644 257.30892944 C86.95170665 252.22115865 90.19716711 247.15983093 93.43962097 242.0965271 C94.12798035 241.02152954 94.81633972 239.94653198 95.52555847 238.83895874 C99.71962701 232.2947483 103.93207776 225.76282853 108.16130066 219.24130249 C120.89089681 199.59416342 133.42322846 179.81861213 145.97477722 160.0574646 C151.32775544 151.63330764 156.6897997 143.21655389 162.12712097 134.8465271 C165.94481054 128.96797304 169.69279832 123.0507209 173.39323425 117.0977478 C177.05406492 111.21616627 180.77586917 105.37432419 184.50212097 99.5340271 C190.38308107 90.30747642 190.38308107 90.30747642 196.18962097 81.0340271 C196.79419128 80.06078491 197.3987616 79.08754272 198.02165222 78.08480835 C199.49575238 75.69510848 199.49575238 75.69510848 200.37712097 72.7215271 C115.23712097 72.3915271 30.09712097 72.0615271 -57.62287903 71.7215271 C-56.50520342 65.01547348 -56.50520342 65.01547348 -53.55647278 61.1512146 C-49.23555035 55.25994929 -45.47194034 49.09051924 -41.68537903 42.8465271 C-37.08894393 35.27645261 -32.41115454 27.79605481 -27.44953918 20.45883179 C-25.00056914 16.78897718 -22.67546907 13.04756652 -20.36116028 9.2918396 C-19.50071106 8.01953491 -19.50071106 8.01953491 -18.62287903 6.7215271 C-18.04299886 5.6933959 -17.46311869 4.6652647 -16.86566639 3.60597801 C-12.6622444 -1.31815411 -5.93790277 -0.08091795 0 0 Z " fill="#fff" transform="translate(139.6228790283203,54.278472900390625)"/>
<path d="M0 0 C1.14226295 -0.00043808 1.14226295 -0.00043808 2.30760193 -0.00088501 C4.81285177 0.0005031 7.31780045 0.01603967 9.82299805 0.03173828 C11.56462949 0.03547026 13.30626304 0.03831636 15.04789734 0.04031372 C19.62311642 0.04793562 24.19820773 0.0675717 28.77337646 0.08972168 C33.44549837 0.11021122 38.117641 0.11932208 42.78979492 0.12939453 C51.95065823 0.15081897 61.11142687 0.18493748 70.2722168 0.22705078 C70.9322168 1.54705078 71.5922168 2.86705078 72.2722168 4.22705078 C71.84303955 4.83000977 71.4138623 5.43296875 70.97167969 6.05419922 C66.7063877 12.09043997 62.65037559 18.22508806 58.7097168 24.47705078 C57.47931 26.41979835 56.24883945 28.36250555 55.01831055 30.30517578 C54.39682129 31.28808594 53.77533203 32.27099609 53.13500977 33.28369141 C50.18985 37.93727543 47.23064795 42.58189719 44.2722168 47.22705078 C43.111976 49.04991364 41.95182005 50.8728305 40.79174805 52.69580078 C39.92670654 54.05511719 39.92670654 54.05511719 39.04418945 55.44189453 C37.22770964 58.29700636 35.4119943 61.15260318 33.59643555 64.00830078 C23.36700943 80.09540496 23.36700943 80.09540496 18.6472168 87.41455078 C15.30416938 92.60394181 12.00056725 97.81692556 8.7097168 103.03955078 C3.29280772 111.63473046 -2.17814532 120.1946274 -7.65917969 128.74902344 C-12.06783715 135.63070234 -16.46655892 142.51855188 -20.8527832 149.41455078 C-21.4216626 150.30875732 -21.99054199 151.20296387 -22.57666016 152.12426758 C-25.47195853 156.6764915 -28.36469747 161.23032766 -31.25512695 165.78564453 C-38.49306718 177.18622412 -45.80345786 188.53629473 -53.1784668 199.84863281 C-55.70088636 203.7209006 -58.21543665 207.59824224 -60.7277832 211.47705078 C-61.16050537 212.14389893 -61.59322754 212.81074707 -62.0390625 213.49780273 C-63.2736021 215.40441365 -64.50216356 217.31469506 -65.7277832 219.22705078 C-66.18540039 219.93796875 -66.64301758 220.64888672 -67.11450195 221.38134766 C-67.78932617 222.44192383 -67.78932617 222.44192383 -68.4777832 223.52392578 C-68.88512695 224.16168945 -69.2924707 224.79945313 -69.7121582 225.45654297 C-70.88245464 227.36148974 -70.88245464 227.36148974 -71.7277832 230.22705078 C-70.43088625 230.22612899 -69.1339893 230.2252072 -67.79779243 230.22425747 C-37.03852345 230.20261751 -6.27925651 230.18611924 24.48001825 230.17598545 C28.26280189 230.17473469 32.04558552 230.17344037 35.82836914 230.17211914 C36.58147944 230.17185683 37.33458974 230.17159452 38.11052157 230.17132426 C50.31797488 230.16696842 62.5254235 230.15908133 74.73287402 230.14989799 C87.25116076 230.14055908 99.76944503 230.13499467 112.2877351 230.13296229 C120.0173075 230.13158755 127.74686664 230.12723964 135.47643496 230.11913431 C141.39523715 230.11324251 147.31403246 230.11259242 153.23283768 230.1139431 C155.66695996 230.11366677 158.10108272 230.11166164 160.53520203 230.10784531 C163.84509131 230.10290812 167.15492275 230.10405262 170.46481323 230.10679626 C171.43950652 230.10388342 172.41419981 230.10097058 173.41842926 230.09796947 C174.30022704 230.09996052 175.18202482 230.10195157 176.09054375 230.10400295 C176.85530049 230.10362323 177.62005724 230.10324351 178.40798843 230.10285228 C180.2722168 230.22705078 180.2722168 230.22705078 182.2722168 231.22705078 C181.81316823 236.47040547 179.01277905 239.92287372 176.0847168 244.10205078 C171.19868949 251.2380855 166.60222083 258.50216158 162.1472168 265.91455078 C156.75911094 274.8597379 151.15496884 283.60121772 145.2722168 292.22705078 C144.53429318 293.33970624 143.79728375 294.45296865 143.0612793 295.56689453 C141.2722168 298.22705078 141.2722168 298.22705078 140.2722168 299.22705078 C131.34434706 300.36121059 122.33069194 300.37382593 113.34614563 300.36749268 C111.99166553 300.37008394 110.63718619 300.37309919 109.28270787 300.37649608 C105.59902365 300.38447787 101.915359 300.38635062 98.23166716 300.38709354 C94.24476653 300.38895929 90.2578757 300.3965133 86.27098083 300.40322876 C77.57768012 300.41674217 68.88438407 300.42282371 60.19107461 300.42723942 C54.76250057 300.43000955 49.3339283 300.43424787 43.90535545 300.43874359 C28.86782729 300.45091918 13.83030051 300.46122699 -1.20723248 300.46461868 C-2.16721405 300.46483825 -3.12719563 300.46505782 -4.11626755 300.46528403 C-5.55956279 300.46561145 -5.55956279 300.46561145 -7.0320155 300.46594548 C-8.98163013 300.46638894 -10.93124475 300.46683551 -12.88085938 300.46728516 C-14.33145579 300.4676173 -14.33145579 300.4676173 -15.81135718 300.46795616 C-31.52286017 300.47191438 -47.23431708 300.4894071 -62.94580223 300.51264468 C-79.0850624 300.53632246 -95.22429936 300.54881863 -111.36357719 300.5499866 C-120.42234398 300.55090453 -129.48105043 300.55668783 -138.53980064 300.57480621 C-146.24182397 300.59015785 -153.94376825 300.59535643 -161.64580395 300.58706811 C-165.57724398 300.58314615 -169.50852454 300.58416647 -173.43994522 300.59812546 C-177.03376315 300.61077005 -180.62730022 300.60975127 -184.22111724 300.59753475 C-186.14668667 300.59462189 -188.07226054 300.60658369 -189.99779242 300.6189568 C-191.69512038 300.60907204 -191.69512038 300.60907204 -193.42673779 300.59898758 C-194.90049414 300.59988321 -194.90049414 300.59988321 -196.40402335 300.60079694 C-197.1708641 300.47746071 -197.93770485 300.35412447 -198.7277832 300.22705078 C-199.7177832 298.74205078 -199.7177832 298.74205078 -200.7277832 297.22705078 C-194.024193 286.14084261 -187.17671623 275.17052841 -180.09399414 264.32275391 C-177.83660555 260.86002631 -175.59580328 257.38659521 -173.3527832 253.91455078 C-170.45539004 249.43304221 -167.55249127 244.95523538 -164.63793945 240.48486328 C-157.17894623 229.04166221 -149.81205726 217.54300575 -142.49389648 206.00927734 C-139.57598388 201.41257676 -136.65163167 196.81997708 -133.7277832 192.22705078 C-130.19043498 186.66984699 -126.65417197 181.11196496 -123.12231445 175.55126953 C-117.41815732 166.57342221 -111.69484655 157.60972272 -105.90405273 148.6875 C-100.38625494 140.17529976 -94.95611241 131.60724164 -89.51733398 123.04443359 C-86.63083473 118.50006778 -83.74228255 113.9570095 -80.8527832 109.41455078 C-79.99680542 108.06876953 -79.99680542 108.06876953 -79.12353516 106.69580078 C-74.62998607 99.63513441 -70.11789324 92.58644316 -65.6027832 85.53955078 C-60.47542969 77.53651611 -55.37419129 69.51810936 -50.30981445 61.47509766 C-46.10718902 54.80866891 -41.85664165 48.17337353 -37.6027832 41.53955078 C-33.08858531 34.49857114 -28.58990125 27.44971242 -24.1652832 20.35205078 C-23.77171631 19.72387451 -23.37814941 19.09569824 -22.97265625 18.44848633 C-21.19725951 15.61037092 -19.45214907 12.76259641 -17.7434082 9.88330078 C-17.14012695 8.88298828 -16.5368457 7.88267578 -15.9152832 6.85205078 C-15.41383789 5.99869141 -14.91239258 5.14533203 -14.39575195 4.26611328 C-10.66417576 -0.29567308 -5.49469569 -0.05553969 0 0 Z " fill="#fff" transform="translate(230.727783203125,145.77294921875)"/>
<path d="M0 0 C1.41912884 -0.00261663 2.83825485 -0.00787045 4.25736541 -0.015535 C8.15717958 -0.02895988 12.05600623 -0.00494167 15.95569456 0.02513337 C20.16082633 0.05102515 24.36590165 0.04227727 28.5710907 0.03771973 C35.85685248 0.03457238 43.14229206 0.05340983 50.42797279 0.08714676 C60.96180908 0.13589281 71.49548945 0.15153375 82.0294263 0.15907471 C99.11961534 0.17220906 116.20963262 0.21214568 133.29972839 0.26889038 C149.90193319 0.32395783 166.50409135 0.36643166 183.10636902 0.39193726 C184.12959488 0.3935136 185.15282075 0.39508994 186.20705346 0.39671405 C191.34023643 0.40454423 196.47341974 0.41212649 201.60660326 0.41958547 C244.19689481 0.48179384 286.78699903 0.58747982 329.37712097 0.7215271 C329.70712097 1.7115271 330.03712097 2.7015271 330.37712097 3.7215271 C328.43962097 6.9090271 328.43962097 6.9090271 326.37712097 9.7215271 C325.37712097 7.7215271 325.37712097 7.7215271 326.37712097 2.7215271 C214.50712097 3.0515271 102.63712097 3.3815271 -12.62287903 3.7215271 C-12.62287903 4.7115271 -12.62287903 5.7015271 -12.62287903 6.7215271 C-13.40662903 7.3402771 -14.19037903 7.9590271 -14.99787903 8.5965271 C-17.80371609 10.86791901 -18.58622235 12.32883252 -19.62287903 15.7215271 C-20.61287903 15.7215271 -21.60287903 15.7215271 -22.62287903 15.7215271 C-22.62287903 16.7115271 -22.62287903 17.7015271 -22.62287903 18.7215271 C-24.60287903 19.7115271 -24.60287903 19.7115271 -26.62287903 20.7215271 C-25.14480957 17.68132735 -23.52883354 14.75747116 -21.81037903 11.8465271 C-21.32955872 11.02410522 -20.8487384 10.20168335 -20.35334778 9.3543396 C-19.78229309 8.48551147 -19.2112384 7.61668335 -18.62287903 6.7215271 C-18.04315999 5.69210684 -17.46344095 4.66268658 -16.86615467 3.60207176 C-12.66155039 -1.31738006 -5.93577698 -0.08088898 0 0 Z " fill="#fff" transform="translate(139.6228790283203,54.278472900390625)"/>
<path d="M0 0 C0.625 1.8125 0.625 1.8125 1 4 C0.01 5.485 0.01 5.485 -1 7 C-1.66 7 -2.32 7 -3 7 C-3 7.99 -3 8.98 -3 10 C-3.66 10 -4.32 10 -5 10 C-5.4021875 11.0828125 -5.4021875 11.0828125 -5.8125 12.1875 C-7 15 -7 15 -10 20 C157.31 19.505 157.31 19.505 328 19 C328.66 17.68 329.32 16.36 330 15 C330.66 15 331.32 15 332 15 C332.66 12.36 333.32 9.72 334 7 C334.99 7 335.98 7 337 7 C337.66 5.68 338.32 4.36 339 3 C339 6.96261139 337.1822739 9.32709866 335.125 12.5625 C334.76019531 13.15224609 334.39539063 13.74199219 334.01953125 14.34960938 C332.49038185 16.79346814 331.04485956 18.95514044 329 21 C320.16769278 22.4173584 310.99657058 22.14673151 302.07392883 22.14044189 C300.71944873 22.14303316 299.36496939 22.1460484 298.01049107 22.1494453 C294.32680685 22.15742709 290.64314221 22.15929984 286.95945036 22.16004276 C282.97254973 22.16190851 278.9856589 22.16946252 274.99876404 22.17617798 C266.30546333 22.18969139 257.61216727 22.19577293 248.91885781 22.20018864 C243.49028378 22.20295876 238.0617115 22.20719709 232.63313866 22.21169281 C217.59561049 22.2238684 202.55808372 22.23417621 187.52055073 22.2375679 C186.56056915 22.23778747 185.60058758 22.23800703 184.61151565 22.23823325 C183.16822042 22.23856067 183.16822042 22.23856067 181.6957677 22.2388947 C179.74615308 22.23933816 177.79653845 22.23978472 175.84692383 22.24023438 C174.39632742 22.24056652 174.39632742 22.24056652 172.91642603 22.24090537 C157.20492303 22.2448636 141.49346612 22.26235632 125.78198097 22.2855939 C109.6427208 22.30927168 93.50348384 22.32176785 77.36420602 22.32293582 C68.30543922 22.32385375 59.24673277 22.32963705 50.18798256 22.34775543 C42.48595923 22.36310707 34.78401496 22.36830565 27.08197925 22.36001733 C23.15053922 22.35609537 19.21925866 22.35711569 15.28783798 22.37107468 C11.69402005 22.38371927 8.10048298 22.38270048 4.50666597 22.37048396 C2.58109653 22.3675711 0.65552266 22.37953291 -1.27000922 22.39190602 C-2.96733717 22.38202126 -2.96733717 22.38202126 -4.69895458 22.3719368 C-6.17271094 22.37283243 -6.17271094 22.37283243 -7.67624015 22.37374616 C-8.4430809 22.25040992 -9.20992165 22.12707369 -10 22 C-10.66 21.01 -11.32 20.02 -12 19 C-10.18978587 16.01943864 -8.37644749 13.04079049 -6.5625 10.0625 C-6.04623047 9.21236328 -5.52996094 8.36222656 -4.99804688 7.48632812 C-4.50498047 6.67744141 -4.01191406 5.86855469 -3.50390625 5.03515625 C-2.82050171 3.91185913 -2.82050171 3.91185913 -2.12329102 2.76586914 C-1 1 -1 1 0 0 Z " fill="#fff" transform="translate(42,424)"/>
<path d="M0 0 C0.66 0.33 1.32 0.66 2 1 C1.50802124 1.7410498 1.50802124 1.7410498 1.00610352 2.49707031 C-0.48100123 4.74420396 -1.9593084 6.99699422 -3.4375 9.25 C-4.2119043 10.41595703 -4.2119043 10.41595703 -5.00195312 11.60546875 C-5.49501953 12.35957031 -5.98808594 13.11367188 -6.49609375 13.890625 C-7.17949829 14.92751465 -7.17949829 14.92751465 -7.87670898 15.98535156 C-9.24140552 18.22723355 -9.24140552 18.22723355 -10 22 C73.49 22 156.98 22 243 22 C241.875 29.875 241.875 29.875 238.4375 34.4375 C237.79683594 35.30246094 237.15617188 36.16742188 236.49609375 37.05859375 C236.00238281 37.69925781 235.50867188 38.33992188 235 39 C234.67 38.01 234.34 37.02 234 36 C235.1796875 34.1328125 235.1796875 34.1328125 236.875 32.125 C239.71689373 28.75438186 240.06408723 27.67956386 241 23 C157.84 23 74.68 23 -11 23 C-11.66 21.35 -12.32 19.7 -13 18 C-12.01 17.67 -11.02 17.34 -10 17 C-10 15.35 -10 13.7 -10 12 C-9.21625 11.814375 -8.4325 11.62875 -7.625 11.4375 C-4.62641826 10.18452045 -4.62641826 10.18452045 -3.875 6.5625 C-3.441875 4.7990625 -3.441875 4.7990625 -3 3 C-1.375 1.0625 -1.375 1.0625 0 0 Z " fill="#fff" transform="translate(168,356)"/>
<path d="M0 0 C0.66 0.66 1.32 1.32 2 2 C3.9815995 2.30639798 3.9815995 2.30639798 6.29099464 2.26171303 C7.65026697 2.27291127 7.65026697 2.27291127 9.03699934 2.28433573 C10.03892927 2.282401 11.0408592 2.28046626 12.07315063 2.2784729 C13.13249955 2.2842653 14.19184846 2.2900577 15.28329885 2.29602563 C18.85637662 2.31312002 22.42932596 2.31591024 26.00244141 2.31884766 C28.55443136 2.32813932 31.10641825 2.33830684 33.65840149 2.34928894 C39.1646702 2.37100331 44.67090275 2.38658801 50.17720413 2.39665604 C58.13844081 2.4112233 66.0996124 2.43675455 74.06081097 2.46498732 C86.97639583 2.51049091 99.89199005 2.54709093 112.80761719 2.578125 C125.35613651 2.60829596 137.90463292 2.64263951 150.453125 2.68261719 C151.61278461 2.68630951 151.61278461 2.68630951 152.79587169 2.69007643 C156.6742051 2.70245074 160.55253824 2.71490733 164.43087125 2.72740483 C196.62054977 2.83102602 228.81025327 2.92021161 261 3 C260.09718287 8.04362263 258.28992101 12.42015799 256 17 C255.01 17 254.02 17 253 17 C254.59104798 12.96118589 256.28798691 8.99469722 258 5 C172.86 4.67 87.72 4.34 0 4 C0 2.68 0 1.36 0 0 Z " fill="#fff" transform="translate(82,122)"/>
<path d="M0 0 C0.33 0 0.66 0 1 0 C0.67 2.31 0.34 4.62 0 7 C-0.99 7.33 -1.98 7.66 -3 8 C-3 8.99 -3 9.98 -3 11 C81.81 11 166.62 11 254 11 C254 11.33 254 11.66 254 12 C168.86 12 83.72 12 -4 12 C-5 7 -5 7 -4.0390625 4.98046875 C-3.57242188 4.38878906 -3.10578125 3.79710938 -2.625 3.1875 C-2.16351563 2.58292969 -1.70203125 1.97835937 -1.2265625 1.35546875 C-0.82179688 0.90816406 -0.41703125 0.46085937 0 0 Z " fill="#fff" transform="translate(88,113)"/>
<path d="M0 0 C0.99 0 1.98 0 3 0 C1.62152612 3.83215739 -0.15231942 6.92743511 -2.5 10.25 C-3.1084375 11.12140625 -3.716875 11.9928125 -4.34375 12.890625 C-6 15 -6 15 -8 16 C-10.53285051 16.09292928 -13.03793593 16.12581684 -15.57080078 16.11352539 C-16.74166733 16.11374443 -16.74166733 16.11374443 -17.93618774 16.1139679 C-20.52259069 16.11326986 -23.10892209 16.10548257 -25.6953125 16.09765625 C-27.48607341 16.09579168 -29.27683483 16.09436796 -31.06759644 16.09336853 C-35.78584191 16.08954641 -40.5040567 16.07971871 -45.22229004 16.06866455 C-50.03490789 16.05844389 -54.84753068 16.0538695 -59.66015625 16.04882812 C-69.10678433 16.03809619 -78.55338962 16.0210234 -88 16 C-89.12451172 12.24023438 -89.12451172 12.24023438 -88.00390625 10.078125 C-87.52824219 9.47484375 -87.05257812 8.8715625 -86.5625 8.25 C-85.85287109 7.32960938 -85.85287109 7.32960938 -85.12890625 6.390625 C-84.75636719 5.93171875 -84.38382813 5.4728125 -84 5 C-83.67 5.66 -83.34 6.32 -83 7 C-83.77734375 8.7265625 -83.77734375 8.7265625 -84.9375 10.625 C-85.9584375 12.295625 -85.9584375 12.295625 -87 14 C-76.63811054 14.00829892 -66.27683979 13.98452476 -55.91513443 13.9197216 C-51.10377308 13.89064044 -46.29289998 13.87263849 -41.48144531 13.87988281 C-36.83859824 13.88646687 -32.19671677 13.8640444 -27.55406952 13.82144547 C-25.78227932 13.81029765 -24.0103914 13.80962922 -22.23859406 13.81957626 C-19.75727356 13.83172199 -17.27891269 13.80672311 -14.79785156 13.77294922 C-14.06417358 13.78517014 -13.33049561 13.79739105 -12.57458496 13.8099823 C-10.25357203 13.81711403 -10.25357203 13.81711403 -7 13 C-4.45577566 9.93678108 -2.72379051 6.80947628 -1.25 3.125 C-0.8375 2.09375 -0.425 1.0625 0 0 Z " fill="#fff" transform="translate(286,340)"/>
<path d="M0 0 C0.625 1.8125 0.625 1.8125 1 4 C0.01 5.485 0.01 5.485 -1 7 C-1.66 7 -2.32 7 -3 7 C-3 7.99 -3 8.98 -3 10 C-3.66 10 -4.32 10 -5 10 C-5.4021875 11.0828125 -5.4021875 11.0828125 -5.8125 12.1875 C-7 15 -7 15 -10 20 C37.85 20 85.7 20 135 20 C135 20.33 135 20.66 135 21 C116.12904088 21.2004718 97.25799003 21.38380153 78.38666725 21.54658794 C69.62486477 21.62257036 60.86318263 21.70421341 52.1015625 21.79907227 C44.46710391 21.88171351 36.83263172 21.95384641 29.19795549 22.01323253 C25.15346571 22.04506291 21.10918125 22.08224153 17.06486893 22.13199425 C13.26141403 22.17861819 9.45810101 22.21123421 5.65442467 22.2329216 C4.25551534 22.24340119 2.85663423 22.25908066 1.45784569 22.28024101 C-0.44619267 22.3082812 -2.35049713 22.31611874 -4.25473022 22.32279968 C-5.3221665 22.33293941 -6.38960278 22.34307913 -7.4893856 22.35352612 C-8.31788836 22.2368625 -9.14639111 22.12019888 -10 22 C-10.66 21.01 -11.32 20.02 -12 19 C-10.18978587 16.01943864 -8.37644749 13.04079049 -6.5625 10.0625 C-6.04623047 9.21236328 -5.52996094 8.36222656 -4.99804688 7.48632812 C-4.50498047 6.67744141 -4.01191406 5.86855469 -3.50390625 5.03515625 C-2.82050171 3.91185913 -2.82050171 3.91185913 -2.12329102 2.76586914 C-1 1 -1 1 0 0 Z " fill="#fff" transform="translate(42,424)"/>
<path d="M0 0 C1.85082873 0.02053352 3.70171751 0.03618353 5.55262756 0.04716492 C10.40893562 0.08903541 15.261586 0.19695767 20.11645508 0.31890869 C25.07648227 0.4317289 30.03710463 0.48173602 34.99804688 0.53710938 C44.72035143 0.65484927 54.43994896 0.84241548 64.16015625 1.07421875 C63.83015625 2.39421875 63.50015625 3.71421875 63.16015625 5.07421875 C62.66515625 3.58921875 62.66515625 3.58921875 62.16015625 2.07421875 C35.76015625 2.40421875 9.36015625 2.73421875 -17.83984375 3.07421875 C-18.16984375 4.39421875 -18.49984375 5.71421875 -18.83984375 7.07421875 C-20.25 8.99609375 -20.25 8.99609375 -21.90234375 10.82421875 C-22.45019531 11.4378125 -22.99804688 12.05140625 -23.5625 12.68359375 C-23.98402344 13.1425 -24.40554687 13.60140625 -24.83984375 14.07421875 C-25.83984375 12.07421875 -25.83984375 12.07421875 -25.06858826 9.51042175 C-19.53113542 -1.62606351 -10.9497583 -0.35641511 0 0 Z " fill="#fff" transform="translate(236.83984375,146.92578125)"/>
<path d="M0 0 C0.66 0.33 1.32 0.66 2 1 C1.50802124 1.7410498 1.50802124 1.7410498 1.00610352 2.49707031 C-0.48100123 4.74420396 -1.9593084 6.99699422 -3.4375 9.25 C-4.2119043 10.41595703 -4.2119043 10.41595703 -5.00195312 11.60546875 C-5.49501953 12.35957031 -5.98808594 13.11367188 -6.49609375 13.890625 C-7.17949829 14.92751465 -7.17949829 14.92751465 -7.87670898 15.98535156 C-9.24140552 18.22723355 -9.24140552 18.22723355 -10 22 C9.14 22 28.28 22 48 22 C48 22.33 48 22.66 48 23 C28.53 23 9.06 23 -11 23 C-11.66 21.35 -12.32 19.7 -13 18 C-12.01 17.67 -11.02 17.34 -10 17 C-10 15.35 -10 13.7 -10 12 C-9.21625 11.814375 -8.4325 11.62875 -7.625 11.4375 C-4.62641826 10.18452045 -4.62641826 10.18452045 -3.875 6.5625 C-3.441875 4.7990625 -3.441875 4.7990625 -3 3 C-1.375 1.0625 -1.375 1.0625 0 0 Z " fill="#fff" transform="translate(168,356)"/>
<path d="M0 0 C0.74493713 0.02580643 1.48987427 0.05161285 2.25738525 0.07820129 C3.41418793 0.0888134 3.41418793 0.0888134 4.59436035 0.09963989 C7.05074237 0.12756676 9.50482076 0.19029516 11.96051025 0.25398254 C13.62844601 0.27906794 15.29641761 0.3018807 16.9644165 0.32234192 C21.04733153 0.37738693 25.12853074 0.46364197 29.21051025 0.56648254 C29.21051025 0.89648254 29.21051025 1.22648254 29.21051025 1.56648254 C12.87551025 2.06148254 12.87551025 2.06148254 -3.78948975 2.56648254 C-3.78948975 3.55648254 -3.78948975 4.54648254 -3.78948975 5.56648254 C-4.57323975 6.18523254 -5.35698975 6.80398254 -6.16448975 7.44148254 C-8.97032681 9.71287445 -9.75283307 11.17378796 -10.78948975 14.56648254 C-11.77948975 14.56648254 -12.76948975 14.56648254 -13.78948975 14.56648254 C-13.78948975 15.55648254 -13.78948975 16.54648254 -13.78948975 17.56648254 C-15.76948975 18.55648254 -15.76948975 18.55648254 -17.78948975 19.56648254 C-16.30114077 16.4976487 -14.6578443 13.56016676 -12.91448975 10.62898254 C-12.42206787 9.79495911 -11.929646 8.96093567 -11.42230225 8.10163879 C-10.88347412 7.26503723 -10.344646 6.42843567 -9.78948975 5.56648254 C-9.26177979 4.69926575 -8.73406982 3.83204895 -8.19036865 2.93855286 C-5.41559901 0.19707819 -3.83325753 -0.00206682 0 0 Z " fill="#fff" transform="translate(130.78948974609375,55.43351745605469)"/>
<path d="M0 0 C0.9435441 2.53899138 1.16906025 3.60909275 0.07421875 6.140625 C-0.38339844 6.83671875 -0.84101562 7.5328125 -1.3125 8.25 C-1.76238281 8.95640625 -2.21226563 9.6628125 -2.67578125 10.390625 C-3.11277344 10.92171875 -3.54976562 11.4528125 -4 12 C-4.66 12 -5.32 12 -6 12 C-6 13.32 -6 14.64 -6 16 C-6.66 16 -7.32 16 -8 16 C-7.8453125 17.051875 -7.8453125 17.051875 -7.6875 18.125 C-8.13949153 22.28332204 -10.09479337 24.09479337 -13 27 C-15.3125 27.875 -15.3125 27.875 -17 28 C-15.62780793 24.26978543 -13.91985582 21.07828155 -11.77734375 17.734375 C-11.15666016 16.76242187 -10.53597656 15.79046875 -9.89648438 14.7890625 C-8.92678711 13.28472656 -8.92678711 13.28472656 -7.9375 11.75 C-7.28716797 10.73164063 -6.63683594 9.71328125 -5.96679688 8.6640625 C-1.15775742 1.15775742 -1.15775742 1.15775742 0 0 Z " fill="#fff" transform="translate(60,396)"/>
<path d="M0 0 C1.11572266 3.73242188 1.11572266 3.73242188 0.07421875 6.140625 C-0.38339844 6.83671875 -0.84101563 7.5328125 -1.3125 8.25 C-1.76238281 8.95640625 -2.21226562 9.6628125 -2.67578125 10.390625 C-3.11277344 10.92171875 -3.54976562 11.4528125 -4 12 C-4.66 12 -5.32 12 -6 12 C-6 13.65 -6 15.3 -6 17 C-6.66 17 -7.32 17 -8 17 C-8.26683594 17.57621094 -8.53367188 18.15242188 -8.80859375 18.74609375 C-10.42724929 21.80827161 -12.52676294 24.38005744 -14.66015625 27.09765625 C-16.18085277 29.0629958 -16.18085277 29.0629958 -17 32 C-17.66 32 -18.32 32 -19 32 C-19 32.99 -19 33.98 -19 35 C-20.485 35.495 -20.485 35.495 -22 36 C-20.66047977 32.37893265 -19.03662666 29.26259194 -16.953125 26.015625 C-16.355 25.07976562 -15.756875 24.14390625 -15.140625 23.1796875 C-14.51671875 22.21289062 -13.8928125 21.24609375 -13.25 20.25 C-12.6415625 19.29867188 -12.033125 18.34734375 -11.40625 17.3671875 C-7.66745414 11.53530507 -3.86483362 5.74907384 0 0 Z " fill="#fff" transform="translate(238,289)"/>
<path d="M0 0 C0.66 0.33 1.32 0.66 2 1 C-13.64561856 26.0896539 -13.64561856 26.0896539 -21 37 C-21.33 36.34 -21.66 35.68 -22 35 C-21.67 34.01 -21.34 33.02 -21 32 C-20.34 32 -19.68 32 -19 32 C-18.87625 31.38125 -18.7525 30.7625 -18.625 30.125 C-18 28 -18 28 -16 26 C-15.29289322 24.35008418 -14.62056011 22.68437744 -14 21 C-13.34 21 -12.68 21 -12 21 C-12 19.68 -12 18.36 -12 17 C-11.34 17 -10.68 17 -10 17 C-10 16.01 -10 15.02 -10 14 C-9.34 14 -8.68 14 -8 14 C-7.34 11.36 -6.68 8.72 -6 6 C-5.34 6 -4.68 6 -4 6 C-4 5.01 -4 4.02 -4 3 C-2.68 2.67 -1.36 2.34 0 2 C0 1.34 0 0.68 0 0 Z " fill="#fff" transform="translate(398,166)"/>
<path d="M0 0 C0 3.96261139 -1.8177261 6.32709866 -3.875 9.5625 C-4.23980469 10.15224609 -4.60460937 10.74199219 -4.98046875 11.34960938 C-6.50961815 13.79346814 -7.95514044 15.95514044 -10 18 C-12.10073853 18.24050903 -12.10073853 18.24050903 -14.72509766 18.22705078 C-15.70596344 18.22689972 -16.68682922 18.22674866 -17.69741821 18.22659302 C-18.75891083 18.21627045 -19.82040344 18.20594788 -20.9140625 18.1953125 C-21.99883881 18.1924826 -23.08361511 18.18965271 -24.20126343 18.18673706 C-27.67595313 18.17551578 -31.15038782 18.15040762 -34.625 18.125 C-36.97655879 18.11497272 -39.3281216 18.10584643 -41.6796875 18.09765625 C-47.45321244 18.07557011 -53.22658801 18.04207345 -59 18 C-59 17.67 -59 17.34 -59 17 C-43.16 16.67 -27.32 16.34 -11 16 C-10.34 14.68 -9.68 13.36 -9 12 C-8.34 12 -7.68 12 -7 12 C-6.34 9.36 -5.68 6.72 -5 4 C-4.01 4 -3.02 4 -2 4 C-1.34 2.68 -0.68 1.36 0 0 Z " fill="#fff" transform="translate(381,427)"/>
<path d="M0 0 C1.26706235 3.80118706 0.57172296 5.3850372 -1 9 C-1.99 9.33 -2.98 9.66 -4 10 C-4.020625 10.825 -4.04125 11.65 -4.0625 12.5 C-5.23176229 16.8652459 -7.3479471 19.03184571 -10.40625 22.265625 C-12.07659926 23.92328486 -12.07659926 23.92328486 -13 26 C-13.66 26 -14.32 26 -15 26 C-15 27.32 -15 28.64 -15 30 C-15.99 30 -16.98 30 -18 30 C-16.692823 26.46730041 -15.140571 23.45310923 -13.06640625 20.3125 C-12.49986328 19.44882813 -11.93332031 18.58515625 -11.34960938 17.6953125 C-10.75986328 16.80585938 -10.17011719 15.91640625 -9.5625 15 C-8.39638516 13.22966063 -7.23099752 11.458842 -6.06640625 9.6875 C-5.55021729 8.90761719 -5.03402832 8.12773437 -4.50219727 7.32421875 C-2.94470608 4.91444854 -1.46307139 2.46802862 0 0 Z " fill="#fff" transform="translate(310,176)"/>
<path d="M0 0 C1 2 1 2 0.75 4 C0 6 0 6 -3 8 C-4.07136051 10.30144109 -5.07989717 12.6340213 -6 15 C-6.66 15 -7.32 15 -8 15 C-8.0825 15.94875 -8.165 16.8975 -8.25 17.875 C-8.4975 18.90625 -8.745 19.9375 -9 21 C-11 22.125 -11 22.125 -13 23 C-13.59070014 24.94603274 -13.59070014 24.94603274 -14 27 C-15.5625 28.75 -15.5625 28.75 -17 30 C-17 26.56388196 -16.30385566 25.4730222 -14.55078125 22.578125 C-14.03193359 21.71703125 -13.51308594 20.8559375 -12.97851562 19.96875 C-12.42873047 19.0715625 -11.87894531 18.174375 -11.3125 17.25 C-10.78205078 16.36828125 -10.25160156 15.4865625 -9.70507812 14.578125 C-6.66192335 9.55972007 -3.47989183 4.72593844 0 0 Z " fill="#fff" transform="translate(110,318)"/>
<path d="M0 0 C0.33 0.99 0.66 1.98 1 3 C-0.109375 4.796875 -0.109375 4.796875 -1.75 6.75 C-4.63216101 10.36945801 -6.38003272 13.68008724 -8 18 C-8.66 18 -9.32 18 -10 18 C-10.33 20.31 -10.66 22.62 -11 25 C-11.99 25.33 -12.98 25.66 -14 26 C-14.33 26.99 -14.66 27.98 -15 29 C-15.66 29 -16.32 29 -17 29 C-17 29.99 -17 30.98 -17 32 C-17.66 32 -18.32 32 -19 32 C-17.28067325 27.00195714 -14.51888258 22.71617764 -11.75 18.25 C-11.01172974 17.05044678 -11.01172974 17.05044678 -10.25854492 15.82666016 C-6.95157011 10.47510606 -3.58386766 5.17165713 0 0 Z " fill="#fff" transform="translate(112,75)"/>
<path d="M0 0 C0.99 0 1.98 0 3 0 C1.63674923 3.69308738 -0.04243956 6.87525785 -2.15234375 10.1953125 C-2.76400391 11.15824219 -3.37566406 12.12117188 -4.00585938 13.11328125 C-4.64330078 14.10714844 -5.28074219 15.10101563 -5.9375 16.125 C-6.57107422 17.12660156 -7.20464844 18.12820313 -7.85742188 19.16015625 C-13.03213494 27.26775086 -13.03213494 27.26775086 -16 30 C-15.67 28.02 -15.34 26.04 -15 24 C-14.34 24 -13.68 24 -13 24 C-12.34 22.02 -11.68 20.04 -11 18 C-10.34 18 -9.68 18 -9 18 C-8.731875 16.88625 -8.46375 15.7725 -8.1875 14.625 C-7 11 -7 11 -4 9 C-3.67 8.01 -3.34 7.02 -3 6 C-2.34 6 -1.68 6 -1 6 C-0.67 4.02 -0.34 2.04 0 0 Z " fill="#fff" transform="translate(223,268)"/>
<path d="M0 0 C7.59 0 15.18 0 23 0 C21.97802228 5.10988859 20.32082143 9.35835714 18 14 C17.01 14 16.02 14 15 14 C16.59104798 9.96118589 18.28798691 5.99469722 20 2 C13.4 1.67 6.8 1.34 0 1 C0 0.67 0 0.34 0 0 Z " fill="#fff" transform="translate(320,125)"/>
<path d="M0 0 C0.33 0.66 0.66 1.32 1 2 C-0.00048828 3.93603516 -0.00048828 3.93603516 -1.5703125 6.2890625 C-2.1375 7.14886719 -2.7046875 8.00867188 -3.2890625 8.89453125 C-3.89492187 9.79558594 -4.50078125 10.69664062 -5.125 11.625 C-6.29489473 13.38760689 -7.46417343 15.15062283 -8.6328125 16.9140625 C-9.48407715 18.19265137 -9.48407715 18.19265137 -10.35253906 19.49707031 C-12.6319103 22.96003918 -14.82129947 26.47297159 -17 30 C-18 27 -18 27 -17.00390625 24.73828125 C-16.52824219 23.93777344 -16.05257812 23.13726562 -15.5625 22.3125 C-14.85287109 21.10013672 -14.85287109 21.10013672 -14.12890625 19.86328125 C-13.75636719 19.24839844 -13.38382813 18.63351562 -13 18 C-12.34 18 -11.68 18 -11 18 C-11 16.68 -11 15.36 -11 14 C-10.01 13.34 -9.02 12.68 -8 12 C-6.93753473 10.03247172 -5.92862192 8.03412421 -5 6 C-4.34 6 -3.68 6 -3 6 C-2.690625 5.195625 -2.38125 4.39125 -2.0625 3.5625 C-1 1 -1 1 0 0 Z " fill="#fff" transform="translate(188,326)"/>
<path d="M0 0 C0.99 0.33 1.98 0.66 3 1 C0.90670935 4.40359182 -1.19301763 7.8031137 -3.29882812 11.19897461 C-4.01448369 12.35509605 -4.72836158 13.51231985 -5.44042969 14.6706543 C-6.46342976 16.334098 -7.49333701 17.99328767 -8.5234375 19.65234375 C-9.14138184 20.65257568 -9.75932617 21.65280762 -10.39599609 22.68334961 C-12 25 -12 25 -14 26 C-14.3125 23.8125 -14.3125 23.8125 -14 21 C-12.37660195 19.29115995 -10.70680947 17.62553283 -9 16 C-8.29289322 14.35008418 -7.62056011 12.68437744 -7 11 C-6.01979625 9.9805881 -5.02196992 8.97753644 -4 8 C-3.67 7.01 -3.34 6.02 -3 5 C-2.34 5 -1.68 5 -1 5 C-0.67 3.35 -0.34 1.7 0 0 Z " fill="#fff" transform="translate(308,306)"/>
<path d="M0 0 C0.33 0.66 0.66 1.32 1 2 C0.06421005 4.35981813 -0.93347808 6.69631264 -2 9 C-2.66 9 -3.32 9 -4 9 C-4.1546875 9.804375 -4.1546875 9.804375 -4.3125 10.625 C-5.58744735 15.02936356 -6.86129781 18.20555661 -10.6875 20.875 C-11.8321875 21.431875 -11.8321875 21.431875 -13 22 C-11.29816715 16.88424944 -8.32246469 12.64984185 -5.375 8.1875 C-4.859375 7.39923828 -4.34375 6.61097656 -3.8125 5.79882812 C-2.54558583 3.8632648 -1.27467036 1.93046058 0 0 Z " fill="#fff" transform="translate(145,263)"/>
<path d="M0 0 C0.33 0.66 0.66 1.32 1 2 C-0.32 4.31 -1.64 6.62 -3 9 C2.94 9 8.88 9 15 9 C13 11 13 11 9.0859375 11.1953125 C7.51550649 11.18200376 5.94513779 11.15813602 4.375 11.125 C3.57320312 11.11597656 2.77140625 11.10695313 1.9453125 11.09765625 C-0.03658523 11.07406223 -2.01832981 11.03819065 -4 11 C-5.12451172 7.24023438 -5.12451172 7.24023438 -4.00390625 5.078125 C-3.52824219 4.47484375 -3.05257812 3.8715625 -2.5625 3.25 C-2.08941406 2.63640625 -1.61632812 2.0228125 -1.12890625 1.390625 C-0.75636719 0.93171875 -0.38382813 0.4728125 0 0 Z " fill="#fff" transform="translate(202,345)"/>
<path d="M0 0 C0.625 1.8125 0.625 1.8125 1 4 C0.01 5.485 0.01 5.485 -1 7 C-1.66 7 -2.32 7 -3 7 C-3 7.99 -3 8.98 -3 10 C-3.66 10 -4.32 10 -5 10 C-5.4021875 11.0828125 -5.4021875 11.0828125 -5.8125 12.1875 C-6.98982498 14.97590126 -8.39145884 17.44095724 -10 20 C-7.69 20 -5.38 20 -3 20 C-5 22 -5 22 -7.5 22.3125 C-8.325 22.209375 -9.15 22.10625 -10 22 C-10.66 21.01 -11.32 20.02 -12 19 C-10.18978587 16.01943864 -8.37644749 13.04079049 -6.5625 10.0625 C-6.04623047 9.21236328 -5.52996094 8.36222656 -4.99804688 7.48632812 C-4.50498047 6.67744141 -4.01191406 5.86855469 -3.50390625 5.03515625 C-2.82050171 3.91185913 -2.82050171 3.91185913 -2.12329102 2.76586914 C-1 1 -1 1 0 0 Z " fill="#fff" transform="translate(42,424)"/>
<path d="M0 0 C0 3.40461804 -0.63790758 4.39710193 -2.40625 7.23046875 C-3.15068359 8.43413086 -3.15068359 8.43413086 -3.91015625 9.66210938 C-4.43480469 10.49548828 -4.95945312 11.32886719 -5.5 12.1875 C-6.02464844 13.03248047 -6.54929687 13.87746094 -7.08984375 14.74804688 C-8.38732497 16.83581211 -9.69087803 18.9195216 -11 21 C-12.09658936 17.71023192 -11.79953138 16.28696233 -11 13 C-10.34 13 -9.68 13 -9 13 C-9 12.01 -9 11.02 -9 10 C-8.34 10 -7.68 10 -7 10 C-7 9.34 -7 8.68 -7 8 C-6.34 8 -5.68 8 -5 8 C-5 7.34 -5 6.68 -5 6 C-4.34 6 -3.68 6 -3 6 C-3 4.68 -3 3.36 -3 2 C-2.01 1.34 -1.02 0.68 0 0 Z " fill="#fff" transform="translate(421,131)"/>
<path d="M0 0 C0.66 0.33 1.32 0.66 2 1 C0.20867469 3.77105416 -1.58311952 6.54180481 -3.375 9.3125 C-3.88289062 10.09818359 -4.39078125 10.88386719 -4.9140625 11.69335938 C-5.64882812 12.8293457 -5.64882812 12.8293457 -6.3984375 13.98828125 C-6.84880371 14.68477783 -7.29916992 15.38127441 -7.76318359 16.09887695 C-8.83083893 17.7399808 -9.9139897 19.37098455 -11 21 C-10.505 16.545 -10.505 16.545 -10 12 C-9.21625 11.814375 -8.4325 11.62875 -7.625 11.4375 C-4.62641826 10.18452045 -4.62641826 10.18452045 -3.875 6.5625 C-3.58625 5.386875 -3.2975 4.21125 -3 3 C-1.375 1.0625 -1.375 1.0625 0 0 Z " fill="#fff" transform="translate(168,356)"/>
<path d="M0 0 C0.33 0.66 0.66 1.32 1 2 C-0.20850753 5.07620099 -1.52221785 8.0444357 -3 11 C-3.66 11 -4.32 11 -5 11 C-5 11.99 -5 12.98 -5 14 C-5.66 14 -6.32 14 -7 14 C-7 14.99 -7 15.98 -7 17 C-7.66 17 -8.32 17 -9 17 C-9 17.99 -9 18.98 -9 20 C-9.99 20 -10.98 20 -12 20 C-10.37885498 15.20178341 -7.70723241 11.3327141 -4.875 7.1875 C-4.40707031 6.49462891 -3.93914062 5.80175781 -3.45703125 5.08789062 C-2.30887563 3.38908895 -1.15500633 1.69415136 0 0 Z " fill="#fff" transform="translate(215,325)"/>
<path d="M0 0 C0.66 0 1.32 0 2 0 C0.29816715 5.11575056 -2.67753531 9.35015815 -5.625 13.8125 C-6.140625 14.60076172 -6.65625 15.38902344 -7.1875 16.20117188 C-8.45441417 18.1367352 -9.72532964 20.06953942 -11 22 C-12.24546405 19.50907189 -11.7767578 18.58919267 -11 16 C-10.34 16 -9.68 16 -9 16 C-9 15.01 -9 14.02 -9 13 C-8.34 13 -7.68 13 -7 13 C-6.773125 12.154375 -6.54625 11.30875 -6.3125 10.4375 C-4.80761382 6.49613144 -2.87296745 3.11238141 0 0 Z " fill="#fff" transform="translate(440,100)"/>
<path d="M0 0 C0.99 0 1.98 0 3 0 C1.56691865 3.95906817 -0.33141949 7.28718181 -2.625 10.8125 C-3.57246094 12.27623047 -3.57246094 12.27623047 -4.5390625 13.76953125 C-5.02117187 14.50558594 -5.50328125 15.24164063 -6 16 C-6.33 14.68 -6.66 13.36 -7 12 C-6.34 12 -5.68 12 -5 12 C-5 10.02 -5 8.04 -5 6 C-4.01 6 -3.02 6 -2 6 C-2 5.01 -2 4.02 -2 3 C-1.34 3 -0.68 3 0 3 C0 2.01 0 1.02 0 0 Z " fill="#fff" transform="translate(325,278)"/>
<path d="M0 0 C1.11667102 3.76477658 0.77699869 5.44600261 -1 9 C-2.57242297 11.57305577 -3.31153894 12.76395621 -6.1875 13.75 C-7.0846875 13.87375 -7.0846875 13.87375 -8 14 C-6.6744419 10.37723685 -5.05653045 7.36494652 -2.875 4.1875 C-2.33617187 3.39730469 -1.79734375 2.60710937 -1.2421875 1.79296875 C-0.83226562 1.20128906 -0.42234375 0.60960937 0 0 Z " fill="#fff" transform="translate(251,269)"/>
<path d="M0 0 C0.625 1.8125 0.625 1.8125 1 4 C0.01 5.485 0.01 5.485 -1 7 C-1.66 7 -2.32 7 -3 7 C-3.2475 7.70125 -3.495 8.4025 -3.75 9.125 C-5 12 -5 12 -7.0625 15.0625 C-8.70988017 17.5601409 -9.55455115 19.10458245 -10 22 C-10.99 22 -11.98 22 -13 22 C-11.29816715 16.88424944 -8.32246469 12.64984185 -5.375 8.1875 C-4.859375 7.39923828 -4.34375 6.61097656 -3.8125 5.79882812 C-2.54558583 3.8632648 -1.27467036 1.93046058 0 0 Z " fill="#fff" transform="translate(272,236)"/>
<path d="M0 0 C0.9435441 2.53899138 1.16906025 3.60909275 0.07421875 6.140625 C-0.61220703 7.18476563 -0.61220703 7.18476563 -1.3125 8.25 C-1.76238281 8.95640625 -2.21226563 9.6628125 -2.67578125 10.390625 C-3.11277344 10.92171875 -3.54976562 11.4528125 -4 12 C-4.66 12 -5.32 12 -6 12 C-6 13.32 -6 14.64 -6 16 C-7.32 16.33 -8.64 16.66 -10 17 C-8.51364884 12.78345644 -6.38750841 9.37521395 -3.875 5.6875 C-3.15054688 4.61886719 -2.42609375 3.55023438 -1.6796875 2.44921875 C-0.84824219 1.23685547 -0.84824219 1.23685547 0 0 Z " fill="#fff" transform="translate(60,396)"/>
<path d="M0 0 C0.33 0.66 0.66 1.32 1 2 C0.01196289 3.97119141 0.01196289 3.97119141 -1.52734375 6.3515625 C-2.07197266 7.20234375 -2.61660156 8.053125 -3.17773438 8.9296875 C-4.04881836 10.26386719 -4.04881836 10.26386719 -4.9375 11.625 C-5.8027832 12.97078125 -5.8027832 12.97078125 -6.68554688 14.34375 C-8.11660783 16.56721661 -9.5549815 18.78558887 -11 21 C-12.04449911 17.86650268 -11.93423645 17.01031744 -11 14 C-10.01 14 -9.02 14 -8 14 C-7.690625 12.7625 -7.690625 12.7625 -7.375 11.5 C-5.62311015 7.04064403 -2.98989535 3.70446154 0 0 Z " fill="#fff" transform="translate(295,158)"/>
<path d="M0 0 C0.33 0.66 0.66 1.32 1 2 C-2.3 6.95 -5.6 11.9 -9 17 C-9.33 15.68 -9.66 14.36 -10 13 C-8.71034824 11.62437146 -7.37310707 10.29233607 -6 9 C-5.2127322 6.8618034 -5.2127322 6.8618034 -5 5 C-4.34 5 -3.68 5 -3 5 C-3 3.68 -3 2.36 -3 1 C-2.01 0.67 -1.02 0.34 0 0 Z " fill="#fff" transform="translate(356,233)"/>
<path d="M0 0 C0.64453125 1.765625 0.64453125 1.765625 1 4 C0.07421875 5.921875 0.07421875 5.921875 -1.3125 7.75 C-1.76238281 8.36359375 -2.21226563 8.9771875 -2.67578125 9.609375 C-3.11277344 10.06828125 -3.54976563 10.5271875 -4 11 C-4.66 11 -5.32 11 -6 11 C-6.66 12.98 -7.32 14.96 -8 17 C-8.66 17 -9.32 17 -10 17 C-8.51364884 12.78345644 -6.38750841 9.37521395 -3.875 5.6875 C-3.15054688 4.61886719 -2.42609375 3.55023438 -1.6796875 2.44921875 C-0.84824219 1.23685547 -0.84824219 1.23685547 0 0 Z " fill="#fff" transform="translate(75,373)"/>
<path d="M0 0 C0.33 0.66 0.66 1.32 1 2 C0.06421005 4.35981813 -0.93347808 6.69631264 -2 9 C-2.66 9 -3.32 9 -4 9 C-4 9.99 -4 10.98 -4 12 C-5.82193842 13.9249647 -7.89235283 15.37535531 -10 17 C-8.51364884 12.78345644 -6.38750841 9.37521395 -3.875 5.6875 C-3.15054688 4.61886719 -2.42609375 3.55023438 -1.6796875 2.44921875 C-0.84824219 1.23685547 -0.84824219 1.23685547 0 0 Z " fill="#fff" transform="translate(121,301)"/>
<path d="M0 0 C0.33 1.32 0.66 2.64 1 4 C0.34 4 -0.32 4 -1 4 C-1.12375 4.928125 -1.2475 5.85625 -1.375 6.8125 C-2 10 -2 10 -4 13 C-4.99 13 -5.98 13 -7 13 C-7.33 13.99 -7.66 14.98 -8 16 C-8.33 15.34 -8.66 14.68 -9 14 C-7.58902133 11.54330645 -6.13956406 9.22085376 -4.5625 6.875 C-4.12873047 6.21628906 -3.69496094 5.55757812 -3.24804688 4.87890625 C-2.17250886 3.24787057 -1.08715514 1.62331547 0 0 Z " fill="#fff" transform="translate(166,230)"/>
<path d="M0 0 C0.33 0.99 0.66 1.98 1 3 C0.34 3.66 -0.32 4.32 -1 5 C-1.71927295 7.31765729 -2.3909893 9.65095874 -3 12 C-3.99 12 -4.98 12 -6 12 C-6 12.99 -6 13.98 -6 15 C-7.98 15.99 -7.98 15.99 -10 17 C-8.49121909 13.87363186 -6.79295485 10.90932266 -5 7.9375 C-4.484375 7.08027344 -3.96875 6.22304687 -3.4375 5.33984375 C-2.32939698 3.5361652 -1.17422952 1.76134428 0 0 Z " fill="#fff" transform="translate(123,58)"/>
<path d="M0 0 C0.66 0.33 1.32 0.66 2 1 C0.88368586 2.83863505 -0.24329627 4.67079723 -1.375 6.5 C-2.00148438 7.5209375 -2.62796875 8.541875 -3.2734375 9.59375 C-3.84320313 10.3878125 -4.41296875 11.181875 -5 12 C-5.66 12 -6.32 12 -7 12 C-6.67 10.02 -6.34 8.04 -6 6 C-5.34 6 -4.68 6 -4 6 C-4 5.01 -4 4.02 -4 3 C-2.68 2.67 -1.36 2.34 0 2 C0 1.34 0 0.68 0 0 Z " fill="#fff" transform="translate(398,166)"/>
<path d="M0 0 C0.33 0.66 0.66 1.32 1 2 C-0.41097867 4.45669355 -1.86043594 6.77914624 -3.4375 9.125 C-4.0881543 10.11306641 -4.0881543 10.11306641 -4.75195312 11.12109375 C-5.82749114 12.75212943 -6.91284486 14.37668453 -8 16 C-8.33 14.68 -8.66 13.36 -9 12 C-8.34 12 -7.68 12 -7 12 C-7 10.68 -7 9.36 -7 8 C-6.34 8 -5.68 8 -5 8 C-4.9175 7.4225 -4.835 6.845 -4.75 6.25 C-3.79468987 3.3840696 -2.21530827 2.0009236 0 0 Z " fill="#fff" transform="translate(451,84)"/>
<path d="M0 0 C0 3.94885763 -1.77906004 6.32537755 -3.8125 9.5625 C-4.16892578 10.15224609 -4.52535156 10.74199219 -4.89257812 11.34960938 C-6.73575726 14.32236986 -8.04615639 16.03077093 -11 18 C-10.34 16.02 -9.68 14.04 -9 12 C-8.34 12 -7.68 12 -7 12 C-6.34 9.36 -5.68 6.72 -5 4 C-4.01 4 -3.02 4 -2 4 C-1.34 2.68 -0.68 1.36 0 0 Z " fill="#fff" transform="translate(381,427)"/>
<path d="M0 0 C0.33 0.66 0.66 1.32 1 2 C-0.3125 4.625 -0.3125 4.625 -2 7 C-2.66 7 -3.32 7 -4 7 C-4.103125 7.598125 -4.20625 8.19625 -4.3125 8.8125 C-5.08876455 11.28243264 -6.07088921 12.32251235 -8 14 C-8 10.37346766 -6.99610743 8.94576483 -5.125 5.875 C-4.59132813 4.98554688 -4.05765625 4.09609375 -3.5078125 3.1796875 C-2 1 -2 1 0 0 Z " fill="#fff" transform="translate(101,334)"/>
<path d="M0 0 C0.33 0.99 0.66 1.98 1 3 C-0.109375 4.796875 -0.109375 4.796875 -1.75 6.75 C-3.87896911 9.40998219 -5.4725343 11.75231965 -6.6875 14.9375 C-7.120625 15.948125 -7.55375 16.95875 -8 18 C-8.99 18.33 -9.98 18.66 -11 19 C-9.58706563 15.11443047 -7.75134013 11.83786638 -5.5 8.375 C-4.8915625 7.43398437 -4.283125 6.49296875 -3.65625 5.5234375 C-2.44470349 3.67754352 -1.22476617 1.83714925 0 0 Z " fill="#fff" transform="translate(112,75)"/>
<path d="M0 0 C0.33 0 0.66 0 1 0 C1 1.65 1 3.3 1 5 C-0.98 5.99 -0.98 5.99 -3 7 C-3 7.99 -3 8.98 -3 10 C-3.66 10 -4.32 10 -5 10 C-5.66 11.32 -6.32 12.64 -7 14 C-7 10.13375035 -5.65502846 8.53339391 -3.5625 5.3125 C-2.92441406 4.31863281 -2.28632813 3.32476562 -1.62890625 2.30078125 C-0.82259766 1.16189453 -0.82259766 1.16189453 0 0 Z " fill="#fff" transform="translate(281,222)"/>
<path d="M0 0 C0.66 0.33 1.32 0.66 2 1 C0.85845641 2.83600745 -0.28834316 4.66874805 -1.4375 6.5 C-2.07558594 7.5209375 -2.71367187 8.541875 -3.37109375 9.59375 C-3.90863281 10.3878125 -4.44617188 11.181875 -5 12 C-5.33 12 -5.66 12 -6 12 C-6.1875 9.625 -6.1875 9.625 -6 7 C-5.01 6.34 -4.02 5.68 -3 5 C-2.63837971 3.67405895 -2.30271961 2.34061543 -2 1 C-1.34 0.67 -0.68 0.34 0 0 Z " fill="#fff" transform="translate(281,179)"/>
<path d="M0 0 C0.33 0 0.66 0 1 0 C1.3077917 3.13837611 1.27813784 4.59343628 -0.53125 7.23828125 C-1.1809375 7.92277344 -1.830625 8.60726562 -2.5 9.3125 C-3.1496875 10.00988281 -3.799375 10.70726562 -4.46875 11.42578125 C-4.9740625 11.94527344 -5.479375 12.46476563 -6 13 C-6.33 12.34 -6.66 11.68 -7 11 C-5.6015625 8.3984375 -5.6015625 8.3984375 -3.625 5.375 C-2.97789062 4.37210938 -2.33078125 3.36921875 -1.6640625 2.3359375 C-1.11492187 1.56507813 -0.56578125 0.79421875 0 0 Z " fill="#fff" transform="translate(218,148)"/>
<path d="M0 0 C0.33 1.32 0.66 2.64 1 4 C0.34 4 -0.32 4 -1 4 C-1.28875 4.61875 -1.5775 5.2375 -1.875 5.875 C-3 8 -3 8 -5 10 C-5.3125 7.8125 -5.3125 7.8125 -5 5 C-2.5 2.1875 -2.5 2.1875 0 0 Z " fill="#fff" transform="translate(231,302)"/>
<path d="M0 0 C0.33 0.66 0.66 1.32 1 2 C-0.98 4.97 -2.96 7.94 -5 11 C-6.49788797 8.00422405 -5.90516186 6.16806651 -5 3 C-2.4375 1.125 -2.4375 1.125 0 0 Z " fill="#fff" transform="translate(317,294)"/>
<path d="M0 0 C-1.45044271 4.10958767 -3.51110752 7.43258745 -6 11 C-6.33 9.68 -6.66 8.36 -7 7 C-6.34 7 -5.68 7 -5 7 C-4.87625 6.030625 -4.7525 5.06125 -4.625 4.0625 C-4.41875 3.051875 -4.2125 2.04125 -4 1 C-2 0 -2 0 0 0 Z " fill="#fff" transform="translate(275,191)"/>
<path d="M0 0 C0.66 0.33 1.32 0.66 2 1 C0.85845641 2.83600745 -0.28834316 4.66874805 -1.4375 6.5 C-2.07558594 7.5209375 -2.71367187 8.541875 -3.37109375 9.59375 C-3.90863281 10.3878125 -4.44617188 11.181875 -5 12 C-5.33 12 -5.66 12 -6 12 C-6.3125 9.8125 -6.3125 9.8125 -6 7 C-3.5625 4.3125 -3.5625 4.3125 -1 2 C-0.67 1.34 -0.34 0.68 0 0 Z " fill="#fff" transform="translate(300,320)"/>
<path d="M0 0 C1.125 3.75 1.125 3.75 0 6 C-0.66 6 -1.32 6 -2 6 C-2 6.99 -2 7.98 -2 9 C-3.98 9.99 -3.98 9.99 -6 11 C-4.54955729 6.89041233 -2.48889248 3.56741255 0 0 Z " fill="#fff" transform="translate(288,211)"/>
<path d="M0 0 C0.99 0 1.98 0 3 0 C1.35821735 4.77609498 -1.26546702 8.79382904 -4 13 C-5 10 -5 10 -4.0625 7.8125 C-3.711875 7.214375 -3.36125 6.61625 -3 6 C-2.34 6 -1.68 6 -1 6 C-0.67 4.02 -0.34 2.04 0 0 Z " fill="#fff" transform="translate(223,268)"/>
<path d="M0 0 C0.625 1.8125 0.625 1.8125 1 4 C0.01 5.485 0.01 5.485 -1 7 C-1.66 7 -2.32 7 -3 7 C-3 8.32 -3 9.64 -3 11 C-3.99 11 -4.98 11 -6 11 C-4.54955729 6.89041233 -2.48889248 3.56741255 0 0 Z " fill="#fff" transform="translate(298,195)"/>
<path d="M0 0 C1 2 1 2 0.375 4.9375 C-1.21652215 8.48225388 -2.55084038 9.36618755 -6 11 C-4.54955729 6.89041233 -2.48889248 3.56741255 0 0 Z " fill="#fff" transform="translate(323,156)"/>
<path d="M0 0 C1.32 0 2.64 0 4 0 C2.6302836 3.99500618 0.74277578 6.80009492 -2 10 C-2 8.68 -2 7.36 -2 6 C-1.34 6 -0.68 6 0 6 C0 4.02 0 2.04 0 0 Z " fill="#fff" transform="translate(398,395)"/>
<path d="M0 0 C0.75 1.5625 0.75 1.5625 1 4 C-0.13084437 6.50286409 -1.52139516 8.67007722 -3 11 C-4.10493755 7.68518735 -4.05432279 5.33868884 -3 2 C-2.01 1.34 -1.02 0.68 0 0 Z " fill="#fff" transform="translate(161,366)"/>
<path d="M0 0 C0.33 0.99 0.66 1.98 1 3 C-0.1796875 5.26171875 -0.1796875 5.26171875 -1.875 7.6875 C-2.42929687 8.49574219 -2.98359375 9.30398438 -3.5546875 10.13671875 C-4.03164063 10.75160156 -4.50859375 11.36648438 -5 12 C-5.33 12 -5.66 12 -6 12 C-6 10.35 -6 8.7 -6 7 C-5.34 7 -4.68 7 -4 7 C-4 6.34 -4 5.68 -4 5 C-3.34 5 -2.68 5 -2 5 C-2 4.01 -2 3.02 -2 2 C-1.34 2 -0.68 2 0 2 C0 1.34 0 0.68 0 0 Z " fill="#fff" transform="translate(343,250)"/>
<path d="M0 0 C1 2 1 2 0.44140625 3.9453125 C0.15136719 4.66460937 -0.13867188 5.38390625 -0.4375 6.125 C-0.72496094 6.84945312 -1.01242188 7.57390625 -1.30859375 8.3203125 C-1.53675781 8.87460938 -1.76492187 9.42890625 -2 10 C-2.99 9.67 -3.98 9.34 -5 9 C-3.7508258 5.54074837 -2.32472205 2.85306797 0 0 Z " fill="#fff" transform="translate(202,174)"/>
<path d="M0 0 C0.6875 1.6875 0.6875 1.6875 1 4 C-0.25 6.75 -0.25 6.75 -2 9 C-2.99 9 -3.98 9 -5 9 C-3.7508258 5.54074837 -2.32472205 2.85306797 0 0 Z " fill="#fff" transform="translate(316,167)"/>
<path d="M0 0 C0.66 0 1.32 0 2 0 C1.58578031 4.83256305 -0.46413986 6.82679218 -4 10 C-3.52449439 8.51965236 -3.04448784 7.04074979 -2.5625 5.5625 C-2.29566406 4.73878906 -2.02882812 3.91507812 -1.75390625 3.06640625 C-1 1 -1 1 0 0 Z " fill="#fff" transform="translate(217,324)"/>
<path d="M0 0 C0.33 0.66 0.66 1.32 1 2 C-0.98 4.97 -2.96 7.94 -5 11 C-6.24546405 8.50907189 -5.7767578 7.58919267 -5 5 C-4.34 5 -3.68 5 -3 5 C-2.5359375 4.0409375 -2.5359375 4.0409375 -2.0625 3.0625 C-1 1 -1 1 0 0 Z " fill="#fff" transform="translate(195,315)"/>
<path d="M0 0 C0.99 0 1.98 0 3 0 C1.125 4.75 1.125 4.75 0 7 C-0.99 7 -1.98 7 -3 7 C-1.125 2.25 -1.125 2.25 0 0 Z " fill="#fff" transform="translate(338,132)"/>
<path d="M0 0 C0 3.99904969 -1.72586967 5.80200422 -4 9 C-4.93423645 5.98968256 -5.04449911 5.13349732 -4 2 C-1.9375 0.8125 -1.9375 0.8125 0 0 Z " fill="#fff" transform="translate(427,122)"/>
<path d="M0 0 C0.33 0.99 0.66 1.98 1 3 C0.01 3.495 0.01 3.495 -1 4 C-0.67 2.68 -0.34 1.36 0 0 Z M-5 4 C-3.68 4.33 -2.36 4.66 -1 5 C-3 8 -3 8 -5.125 8.6875 C-5.74375 8.790625 -6.3625 8.89375 -7 9 C-6.34 7.35 -5.68 5.7 -5 4 Z " fill="#fff" transform="translate(250,274)"/>
<path d="M0 0 C1 2 1 2 0.75 4 C0 6 0 6 -3 8 C-3.33 8.99 -3.66 9.98 -4 11 C-4.66 11 -5.32 11 -6 11 C-4.54955729 6.89041233 -2.48889248 3.56741255 0 0 Z " fill="#fff" transform="translate(258,258)"/>
<path d="M0 0 C1 2 1 2 0.75 4 C0 6 0 6 -3 8 C-3.33 8.99 -3.66 9.98 -4 11 C-4.66 11 -5.32 11 -6 11 C-4.54955729 6.89041233 -2.48889248 3.56741255 0 0 Z " fill="#fff" transform="translate(156,246)"/>
<path d="M0 0 C0.66 0 1.32 0 2 0 C0.54955729 4.10958767 -1.51110752 7.43258745 -4 11 C-5 8 -5 8 -4.07421875 5.95703125 C-3.61660156 5.24933594 -3.15898437 4.54164063 -2.6875 3.8125 C-2.23761719 3.09707031 -1.78773438 2.38164062 -1.32421875 1.64453125 C-0.88722656 1.10183594 -0.45023437 0.55914062 0 0 Z " fill="#fff" transform="translate(362,222)"/>
<path d="M0 0 C1 2 1 2 0.75 4 C0 6 0 6 -3 8 C-3.33 8.99 -3.66 9.98 -4 11 C-4.66 11 -5.32 11 -6 11 C-4.54955729 6.89041233 -2.48889248 3.56741255 0 0 Z " fill="#fff" transform="translate(184,202)"/>
<path d="M0 0 C0.33 0.66 0.66 1.32 1 2 C0.00390625 3.9453125 0.00390625 3.9453125 -1.4375 6.125 C-1.91058594 6.84945312 -2.38367188 7.57390625 -2.87109375 8.3203125 C-3.24363281 8.87460938 -3.61617188 9.42890625 -4 10 C-4.96956854 6.94813661 -5.1635271 6.33484121 -3.6875 3.3125 C-2 1 -2 1 0 0 Z " fill="#fff" transform="translate(376,199)"/>
<path d="M0 0 C1 2 1 2 0.9375 3.8125 C-0.52058124 7.21468955 -3.08270714 8.76547781 -6 11 C-4.54955729 6.89041233 -2.48889248 3.56741255 0 0 Z " fill="#fff" transform="translate(82,362)"/>
<path d="M0 0 C0.625 1.8125 0.625 1.8125 1 4 C0.01 5.485 0.01 5.485 -1 7 C-1.66 7 -2.32 7 -3 7 C-3.33 7.99 -3.66 8.98 -4 10 C-4.33 9.34 -4.66 8.68 -5 8 C-4.00390625 6.0546875 -4.00390625 6.0546875 -2.5625 3.875 C-2.08941406 3.15054688 -1.61632812 2.42609375 -1.12890625 1.6796875 C-0.75636719 1.12539062 -0.38382812 0.57109375 0 0 Z " fill="#fff" transform="translate(272,236)"/>
<path d="M0 0 C1.24546405 2.49092811 0.7767578 3.41080733 0 6 C-0.66 6 -1.32 6 -2 6 C-2 6.99 -2 7.98 -2 9 C-2.99 9 -3.98 9 -5 9 C-3.7508258 5.54074837 -2.32472205 2.85306797 0 0 Z " fill="#fff" transform="translate(334,139)"/>
<path d="M0 0 C-0.99 0 -1.98 0 -3 0 C-3 0.99 -3 1.98 -3 3 C-6 5.1875 -6 5.1875 -9 7 C-8.690625 6.401875 -8.38125 5.80375 -8.0625 5.1875 C-6.89790296 2.91043228 -6.89790296 2.91043228 -6 0 C-3.50907189 -1.24546405 -2.58919267 -0.7767578 0 0 Z " fill="#fff" transform="translate(130,58)"/>
<path d="M0 0 C0.8125 1.6875 0.8125 1.6875 1 4 C-1.4375 6.75 -1.4375 6.75 -4 9 C-4 5.00095031 -2.27413033 3.19799578 0 0 Z " fill="#fff" transform="translate(172,221)"/>
<path d="M0 0 C0.66 0.99 1.32 1.98 2 3 C0.71937515 4.7074998 -0.61767557 6.37373596 -2 8 C-2.66 8 -3.32 8 -4 8 C-2.87548273 5.0280615 -1.77706209 2.66559313 0 0 Z " fill="#fff" transform="translate(36,436)"/>
<path d="M0 0 C-1.1858237 3.37503669 -2.27573689 5.64722731 -5 8 C-4.74438677 5.6568787 -4.40729228 3.32156597 -4 1 C-2 0 -2 0 0 0 Z " fill="#fff" transform="translate(294,332)"/>
<path d="M0 0 C0 3.59857954 -0.95830515 5.09451118 -3 8 C-3.66 8 -4.32 8 -5 8 C-5 6.68 -5 5.36 -5 4 C-4.01 4 -3.02 4 -2 4 C-1.34 2.68 -0.68 1.36 0 0 Z " fill="#fff" transform="translate(381,427)"/>
</svg>
